<svg xmlns="http://www.w3.org/2000/svg" version="1.1" xmlns:xlink="http://www.w3.org/1999/xlink" xmlns:svgjs="http://svgjs.dev/svgjs" width="1000" height="477" viewBox="0 0 1000 477"><g transform="matrix(1,0,0,1,-0.6060606060606233,-0.03924976637969735)"><svg viewBox="0 0 396 189" data-background-color="#ffffff" preserveAspectRatio="xMidYMid meet" height="477" width="1000" xmlns="http://www.w3.org/2000/svg" xmlns:xlink="http://www.w3.org/1999/xlink"><g id="tight-bounds" transform="matrix(1,0,0,1,0.2400000000000091,0.015551794225913795)"><svg viewBox="0 0 395.52 188.9688935400317" height="188.9688935400317" width="395.52"><g><svg viewBox="0 0 395.52 188.9688935400317" height="188.9688935400317" width="395.52"><g transform="matrix(1,0,0,1,0,116.79035726376176)"><svg viewBox="0 0 395.52 72.17853627626994" height="72.17853627626994" width="395.52"><g><svg viewBox="0 0 395.52 72.17853627626994" height="72.17853627626994" width="395.52"><g><svg viewBox="0 0 395.52 72.17853627626994" height="72.17853627626994" width="395.52"><g transform="matrix(1,0,0,1,0,0)"><svg width="395.52" viewBox="1.149999976158142 -40.43000030517578 231.16000366210938 42.189998626708984" height="72.17853627626994" data-palette-color="#f3e746"><g class="undefined-text-0" data-fill-palette-color="primary" id="text-0"><path d="M4.15-8.79L4.15-8.79 1.15-8.79 1.15-10.55 4.15-10.55Q5.44-10.55 6.32-11.52 7.2-12.5 7.2-14.11L7.2-14.11 7.2-40.43 8.96-40.43 8.96-14.11Q8.96-11.79 7.57-10.29 6.18-8.79 4.15-8.79ZM4.15-5.27L4.15-5.27 1.15-5.27 1.15-7.03 4.15-7.03Q6.88-7.03 8.8-9.11 10.72-11.18 10.72-14.11L10.72-14.11 10.72-40.43 12.48-40.43 12.48-14.11Q12.48-10.45 10.05-7.86 7.62-5.27 4.15-5.27ZM4.15-1.76L4.15-1.76 1.15-1.76 1.15-3.52 4.15-3.52Q8.35-3.52 11.29-6.62 14.23-9.72 14.23-14.11L14.23-14.11 14.23-40.43 15.99-40.43 15.99-14.11Q15.99-10.77 14.42-7.92 12.84-5.08 10.11-3.42 7.37-1.76 4.15-1.76ZM4.15 1.76L4.15 1.76 1.15 1.76 1.15 0 4.15 0Q6.93 0 9.45-1.12 11.96-2.25 13.78-4.14 15.6-6.03 16.67-8.64 17.75-11.25 17.75-14.11L17.75-14.11 17.75-40.43 19.51-40.43 19.51-14.11Q19.51-10.89 18.3-7.96 17.09-5.03 15.03-2.89 12.96-0.76 10.12 0.5 7.28 1.76 4.15 1.76ZM48.87-11.87L41.45-11.87 42.16-13.62 48.17-13.62 48.87-11.87ZM50.29-8.35L40.09-8.35 40.77-10.11 49.53-10.11 50.29-8.35ZM51.66-4.83L38.72-4.83 39.4-6.59 50.93-6.59 51.66-4.83ZM39.48-38.06L24.44 0 22.53 0 38.52-40.43 40.43-40.43 56.39 0 54.51 0 39.48-38.06ZM26.32 0L39.69-33.89 40.7-31.64 28.2 0 26.32 0ZM30.1 0L41.65-29.25 42.58-26.83 32 0 30.1 0ZM33.88 0L43.5-24.41 44.43-21.95 35.76 0 33.88 0ZM51.76-40.43L67.75 0 65.84 0 49.88-40.43 51.76-40.43ZM46.09-40.43L47.97-40.43 63.96 0 62.08 0 46.09-40.43ZM42.31-40.43L44.19-40.43 60.18 0 58.27 0 42.31-40.43ZM99.92 0L99.92-14.75 101.68-18.07 101.68 0 99.92 0ZM103.44 0L103.44-21.48 105.2-24.8 105.2 0 103.44 0ZM106.95 0L106.95-28.13 108.71-31.47 108.71 0 106.95 0ZM108.25-40.43L95.16-15.58 94.16-17.41 106.27-40.43 108.25-40.43ZM104.27-40.43L93.13-19.41 92.11-21.26 102.27-40.43 104.27-40.43ZM81.37 0L81.37-17.87 83.12-14.55 83.12 0 81.37 0ZM77.85 0L77.85-24.56 79.61-21.24 79.61 0 77.85 0ZM74.34 0L74.34-31.25 76.09-27.91 76.09 0 74.34 0ZM72.8-40.43L88.54-10.55 86.57-10.55 72.58-37.08 72.58 0 70.82 0 70.82-40.43 72.8-40.43ZM76.8-40.43L92.52-10.55 90.52-10.55 74.8-40.43 76.8-40.43ZM110.47 0L110.47-37.08 96.48-10.55 94.48-10.55 78.78-40.43 80.76-40.43 95.5-12.4 110.22-40.43 112.23-40.43 112.23 0 110.47 0ZM145.96 0L145.96-14.75 147.72-18.07 147.72 0 145.96 0ZM149.48 0L149.48-21.48 151.24-24.8 151.24 0 149.48 0ZM153 0L153-28.13 154.75-31.47 154.75 0 153 0ZM154.29-40.43L141.2-15.58 140.2-17.41 152.31-40.43 154.29-40.43ZM150.31-40.43L139.18-19.41 138.15-21.26 148.31-40.43 150.31-40.43ZM127.41 0L127.41-17.87 129.17-14.55 129.17 0 127.41 0ZM123.89 0L123.89-24.56 125.65-21.24 125.65 0 123.89 0ZM120.38 0L120.38-31.25 122.14-27.91 122.14 0 120.38 0ZM118.84-40.43L134.59-10.55 132.61-10.55 118.62-37.08 118.62 0 116.86 0 116.86-40.43 118.84-40.43ZM122.84-40.43L138.57-10.55 136.56-10.55 120.84-40.43 122.84-40.43ZM156.51 0L156.51-37.08 142.52-10.55 140.52-10.55 124.82-40.43 126.8-40.43 141.55-12.4 156.27-40.43 158.27-40.43 158.27 0 156.51 0ZM173.45 0L173.45-40.43 175.21-40.43 175.21 0 173.45 0ZM169.94 0L169.94-40.43 171.69-40.43 171.69 0 169.94 0ZM166.42 0L166.42-40.43 168.18-40.43 168.18 0 166.42 0ZM162.91 0L162.91-40.43 164.66-40.43 164.66 0 162.91 0ZM208.56-40.43L208.56-19.46 206.8-22.36 206.8-40.43 208.56-40.43ZM212.07-40.43L212.07-13.7 210.31-16.65 210.31-40.43 212.07-40.43ZM215.59-40.43L215.59-7.86 213.83-10.84 213.83-40.43 215.59-40.43ZM190.39 0L190.39-20.97 192.15-18.07 192.15 0 190.39 0ZM186.88 0L186.88-26.73 188.63-23.78 188.63 0 186.88 0ZM183.36 0L183.36-32.57 185.12-29.59 185.12 0 183.36 0ZM208.83 0L183.97-40.43 186.02-40.43 210.88 0 208.83 0ZM212.93 0L188.12-40.43 190.2-40.43 215.03 0 212.93 0ZM217.03 0L192.25-40.43 194.3-40.43 217.35-2.86 217.35-40.43 219.1-40.43 219.1 0Q219.1 0 217.03 0L217.03 0ZM204.7 0L181.6-37.57 181.6 0 179.85 0 179.85-40.43Q179.85-40.43 181.95-40.43L181.95-40.43 206.73 0 204.7 0ZM232.31-24.58L230.55-24.58 230.55-40.43 232.31-40.43 232.31-24.58ZM228.79-24.58L227.04-24.58 227.04-40.43 228.79-40.43 228.79-24.58ZM225.28-24.58L223.52-24.58 223.52-40.43 225.28-40.43 225.28-24.58Z" fill="#f3e746" data-fill-palette-color="primary"></path></g></svg></g></svg></g></svg></g></svg></g><g transform="matrix(1,0,0,1,153.1702138120572,0)"><svg viewBox="0 0 89.1795723758856 99.75073713380506" height="99.75073713380506" width="89.1795723758856"><g><svg xmlns="http://www.w3.org/2000/svg" xmlns:xlink="http://www.w3.org/1999/xlink" version="1.1" x="0" y="0" viewBox="18.134002685546875 19.195999145507812 56.11164093017578 62.76300048828125" enable-background="new 0 0 100 100" xml:space="preserve" height="99.75073713380506" width="89.1795723758856" class="icon-icon-0" data-fill-palette-color="accent" id="icon-0"><path fill="#f2d755" d="M74.245 21.972c0-1.518-1.231-2.749-2.75-2.749l-36.412-0.027c-1.519 0-2.748 1.231-2.748 2.749v37.964c-0.949-0.263-1.947-0.399-2.979-0.399-6.198 0-11.222 5.024-11.222 11.223 0 6.199 5.024 11.226 11.222 11.226 6.046 0 11.215-4.677 11.215-10.769 0.007-0.073 0.022-30.853 0.022-30.853 0.01-0.791 0.651-1.429 1.445-1.429l-0.001-0.001 22.602 0.01C65.398 38.962 66 39.585 66 40.355l0.005-0.017v17.051c-0.948-0.262-1.946-0.397-2.978-0.397-6.198 0-11.226 5.022-11.226 11.223 0 6.198 5.025 11.226 11.226 11.226 6.045 0 10.974-4.78 11.214-10.769C74.248 68.598 74.245 21.972 74.245 21.972z" data-fill-palette-color="accent"></path></svg></g></svg></g><g></g></svg></g><defs></defs></svg><rect width="395.52" height="188.9688935400317" fill="none" stroke="none" visibility="hidden"></rect></g></svg></g></svg>